<?xml version="1.0" encoding="UTF-8" standalone="no"?>
<!-- Generator: Adobe Illustrator 16.0.0, SVG Export Plug-In . SVG Version: 6.00 Build 0)  -->

<svg
   xmlns:dc="http://purl.org/dc/elements/1.1/"
   xmlns:cc="http://creativecommons.org/ns#"
   xmlns:rdf="http://www.w3.org/1999/02/22-rdf-syntax-ns#"
   xmlns:svg="http://www.w3.org/2000/svg"
   xmlns="http://www.w3.org/2000/svg"
   xmlns:sodipodi="http://sodipodi.sourceforge.net/DTD/sodipodi-0.dtd"
   xmlns:inkscape="http://www.inkscape.org/namespaces/inkscape"
   version="1.1"
   id="Capa_1"
   x="0px"
   y="0px"
   width="226.13699"
   height="440.42899"
   viewBox="0 0 226.137 440.429"
   xml:space="preserve"
   inkscape:version="0.91 r13725"
   sodipodi:docname="mobile-portrait.svg"><metadata
     id="metadata85"><rdf:RDF><cc:Work
         rdf:about=""><dc:format>image/svg+xml</dc:format><dc:type
           rdf:resource="http://purl.org/dc/dcmitype/StillImage" /><dc:title></dc:title></cc:Work></rdf:RDF></metadata><defs
     id="defs83" /><sodipodi:namedview
     pagecolor="#ffffff"
     bordercolor="#666666"
     borderopacity="1"
     objecttolerance="10"
     gridtolerance="10"
     guidetolerance="10"
     inkscape:pageopacity="0"
     inkscape:pageshadow="2"
     inkscape:window-width="1366"
     inkscape:window-height="704"
     id="namedview81"
     showgrid="false"
     fit-margin-top="0"
     fit-margin-left="0"
     fit-margin-right="0"
     fit-margin-bottom="0"
     inkscape:zoom="1.0716824"
     inkscape:cx="293.2707"
     inkscape:cy="233.19355"
     inkscape:window-x="0"
     inkscape:window-y="27"
     inkscape:window-maximized="1"
     inkscape:current-layer="Capa_1" /><rect
     style="opacity:1;fill:#ffffff;fill-opacity:1;stroke:none;stroke-width:1.39999998;stroke-miterlimit:4;stroke-dasharray:none;stroke-opacity:0"
     id="rect4215"
     width="225.58354"
     height="438.92776"
     x="0.46364966"
     y="0.054699924"
     ry="50.388062" /><g
     id="g3"
     style="fill:#454545;fill-opacity:1"
     transform="translate(-107.146,0)"><g
       id="g5"
       style="fill:#454545;fill-opacity:1"><path
         d="m 126.216,45.425 0,341.4 c 0,1.635 1.328,2.961 2.963,2.961 l 182.065,0 c 1.635,0 2.96,-1.326 2.96,-2.961 l 0,-341.4 c 0,-1.635 -1.325,-2.963 -2.96,-2.963 l -182.064,0 c -1.636,0 -2.964,1.328 -2.964,2.963 z m 5.927,2.963 176.137,0 0,335.471 -176.137,0 0,-335.471 z"
         id="path7"
         style="fill:#454545;fill-opacity:1"
         inkscape:connector-curvature="0" /><path
         d="m 238.731,396.488 -37.039,0 c -5.987,0 -10.862,4.764 -10.862,10.613 0,5.753 4.789,10.74 10.667,11.101 l 10.648,0.67 c 2.227,0.138 5.141,0.208 8.066,0.208 2.922,0 5.834,-0.07 8.064,-0.208 l 10.648,-0.67 c 5.88,-0.36 10.669,-5.348 10.669,-11.101 0.002,-5.849 -4.873,-10.613 -10.861,-10.613 z m -0.167,15.798 -10.648,0.665 c -4.246,0.27 -11.157,0.27 -15.399,0 l -10.648,-0.665 c -2.772,-0.168 -5.104,-2.544 -5.104,-5.185 0,-2.58 2.211,-4.692 4.938,-4.692 l 37.033,0 c 2.728,0 4.937,2.112 4.937,4.692 -0.005,2.63 -2.347,5.012 -5.109,5.185 z"
         id="path9"
         style="fill:#454545;fill-opacity:1"
         inkscape:connector-curvature="0" /><path
         d="m 107.146,45.425 0,349.576 c 0,25.044 20.375,45.428 45.425,45.428 l 135.29,0 c 25.05,0 45.422,-20.384 45.422,-45.428 l 0,-349.576 C 333.283,20.383 312.911,0 287.861,0 l -135.29,0 c -25.05,0 -45.425,20.383 -45.425,45.425 z m 214.286,0 0,349.576 c 0,18.509 -15.057,33.575 -33.57,33.575 l -135.29,0 c -18.517,0 -33.576,-15.066 -33.576,-33.575 l 0,-349.576 c 0,-18.509 15.059,-33.575 33.576,-33.575 l 135.29,0 c 18.513,0 33.57,15.066 33.57,33.575 z"
         id="path11"
         style="fill:#454545;fill-opacity:1"
         inkscape:connector-curvature="0" /><path
         d="m 159.754,20.47 c 2.09,0 3.783,1.693 3.783,3.783 0,2.09 -1.693,3.786 -3.783,3.786 -2.092,0 -3.786,-1.696 -3.786,-3.786 0,-2.09 1.694,-3.783 3.786,-3.783 z"
         id="path13"
         style="fill:#454545;fill-opacity:1"
         inkscape:connector-curvature="0" /><path
         d="m 242.997,20.47 c 2.087,0 3.783,1.693 3.783,3.783 0,2.09 -1.696,3.786 -3.783,3.786 -2.092,0 -3.788,-1.696 -3.788,-3.786 0,-2.09 1.696,-3.783 3.788,-3.783 z"
         id="path15"
         style="fill:#454545;fill-opacity:1"
         inkscape:connector-curvature="0" /><path
         d="m 253.859,20.47 c 2.087,0 3.783,1.693 3.783,3.783 0,2.09 -1.696,3.786 -3.783,3.786 -2.093,0 -3.783,-1.696 -3.783,-3.786 0,-2.09 1.691,-3.783 3.783,-3.783 z"
         id="path17"
         style="fill:#454545;fill-opacity:1"
         inkscape:connector-curvature="0" /><path
         d="m 280.696,20.47 c 2.087,0 3.783,1.693 3.783,3.783 0,2.09 -1.696,3.786 -3.783,3.786 -2.093,0 -3.788,-1.696 -3.788,-3.786 0,-2.09 1.696,-3.783 3.788,-3.783 z"
         id="path19"
         style="fill:#454545;fill-opacity:1"
         inkscape:connector-curvature="0" /><path
         d="m 174.787,28.892 57.13,0 c 2.564,0 4.646,-2.08 4.646,-4.639 0,-2.551 -2.082,-4.628 -4.646,-4.628 l -57.13,0 c -2.552,0 -4.631,2.077 -4.631,4.628 0,2.559 2.07,4.639 4.631,4.639 z m 0,-7.292 57.13,0 c 1.478,0 2.671,1.193 2.671,2.653 0,1.462 -1.193,2.664 -2.671,2.664 l -57.13,0 c -1.47,0 -2.656,-1.193 -2.656,-2.664 0,-1.468 1.186,-2.653 2.656,-2.653 z"
         id="path21"
         style="fill:#454545;fill-opacity:1"
         inkscape:connector-curvature="0" /><circle
         cx="178.42"
         cy="24.254"
         r="1.326"
         id="circle23"
         style="fill:#454545;fill-opacity:1" /><circle
         cx="182.315"
         cy="24.254"
         r="1.326"
         id="circle25"
         style="fill:#454545;fill-opacity:1" /><circle
         cx="186.185"
         cy="24.254"
         r="1.326"
         id="circle27"
         style="fill:#454545;fill-opacity:1" /><circle
         cx="190.05701"
         cy="24.254"
         r="1.326"
         id="circle29"
         style="fill:#454545;fill-opacity:1" /><circle
         cx="193.929"
         cy="24.254"
         r="1.326"
         id="circle31"
         style="fill:#454545;fill-opacity:1" /><circle
         cx="197.808"
         cy="24.254"
         r="1.326"
         id="circle33"
         style="fill:#454545;fill-opacity:1" /><circle
         cx="201.67799"
         cy="24.254"
         r="1.326"
         id="circle35"
         style="fill:#454545;fill-opacity:1" /><circle
         cx="205.55"
         cy="24.254"
         r="1.326"
         id="circle37"
         style="fill:#454545;fill-opacity:1" /><circle
         cx="209.41901"
         cy="24.254"
         r="1.326"
         id="circle39"
         style="fill:#454545;fill-opacity:1" /><circle
         cx="213.314"
         cy="24.254"
         r="1.326"
         id="circle41"
         style="fill:#454545;fill-opacity:1" /><circle
         cx="217.186"
         cy="24.254"
         r="1.326"
         id="circle43"
         style="fill:#454545;fill-opacity:1" /><circle
         cx="221.058"
         cy="24.254"
         r="1.326"
         id="circle45"
         style="fill:#454545;fill-opacity:1" /><path
         d="m 224.93,22.927 c 0.731,0 1.325,0.594 1.325,1.325 0,0.734 -0.594,1.328 -1.325,1.328 -0.736,0 -1.331,-0.594 -1.331,-1.328 0,-0.731 0.594,-1.325 1.331,-1.325 z"
         id="path47"
         style="fill:#454545;fill-opacity:1"
         inkscape:connector-curvature="0" /><path
         d="m 228.819,22.927 c 0.736,0 1.331,0.594 1.331,1.325 0,0.734 -0.595,1.328 -1.331,1.328 -0.731,0 -1.325,-0.594 -1.325,-1.328 0,-0.731 0.594,-1.325 1.325,-1.325 z"
         id="path49"
         style="fill:#454545;fill-opacity:1"
         inkscape:connector-curvature="0" /></g></g><g
     id="g51"
     transform="translate(-107.146,0)" /><g
     id="g53"
     transform="translate(-107.146,0)" /><g
     id="g55"
     transform="translate(-107.146,0)" /><g
     id="g57"
     transform="translate(-107.146,0)" /><g
     id="g59"
     transform="translate(-107.146,0)" /><g
     id="g61"
     transform="translate(-107.146,0)" /><g
     id="g63"
     transform="translate(-107.146,0)" /><g
     id="g65"
     transform="translate(-107.146,0)" /><g
     id="g67"
     transform="translate(-107.146,0)" /><g
     id="g69"
     transform="translate(-107.146,0)" /><g
     id="g71"
     transform="translate(-107.146,0)" /><g
     id="g73"
     transform="translate(-107.146,0)" /><g
     id="g75"
     transform="translate(-107.146,0)" /><g
     id="g77"
     transform="translate(-107.146,0)" /><g
     id="g79"
     transform="translate(-107.146,0)" /></svg>